<svg id="Layer_1" data-name="Layer 1" xmlns="http://www.w3.org/2000/svg" viewBox="0 0 475.53 512"><defs><style>.cls-1{fill:#fd8901;}</style></defs><title>Monthly Outstanding</title><g id="Monthly_Outstanding" data-name="Monthly Outstanding"><path class="cls-1" d="M458.38,62H419.46V35.38A35.38,35.38,0,0,0,384.08,0h-1.41a35.39,35.39,0,0,0-35.39,35.38V62H164.72V35.38A35.39,35.39,0,0,0,129.33,0h-1.41A35.38,35.38,0,0,0,92.54,35.38V62H53.62A35.38,35.38,0,0,0,18.24,97.33V476.62A35.38,35.38,0,0,0,53.62,512H458.38a35.38,35.38,0,0,0,35.38-35.38V97.33A35.38,35.38,0,0,0,458.38,62ZM434.32,456.1H77.68V168.8H434.32Z" transform="translate(-18.24)"/><path class="cls-1" d="M256,207.82A104.63,104.63,0,1,0,360.63,312.45,104.75,104.75,0,0,0,256,207.82Zm52,57.36H279.61a47,47,0,0,1,8.53,18.9H308V303H288.13a47.36,47.36,0,0,1-42.54,37.67l40.73,40.74L273,394.77,200.09,321.9h41.73A28.42,28.42,0,0,0,268.56,303H204V284.08h64.56a28.42,28.42,0,0,0-26.74-18.9H204V246.27H308Z" transform="translate(-18.24)"/></g></svg>