<svg id="Layer_1" data-name="Layer 1" xmlns="http://www.w3.org/2000/svg" viewBox="0 0 509.48 499.11"><defs><style>.cls-1{fill:#009444;}</style></defs><title>Monthly Purchase</title><g id="monthly_purchase" data-name="monthly purchase"><circle class="cls-1" cx="180.45" cy="437.06" r="61.75"/><path class="cls-1" d="M379.56,381.15h0a62.35,62.35,0,1,0,55.94,56A62.36,62.36,0,0,0,379.56,381.15Z" transform="translate(-1.26 -6.45)"/><path class="cls-1" d="M506.65,146.14A16.17,16.17,0,0,0,492.87,139H424.52v-1.2a131.3,131.3,0,0,0-262.59,0V139H111L93.59,59.81A18,18,0,0,0,76.2,46H1.26V82H61.81l55.76,256A17.39,17.39,0,0,0,135,352.38H448.5a18,18,0,0,0,17.39-13.79l44.36-177.46A16.79,16.79,0,0,0,506.65,146.14ZM293.23,233.07a95.32,95.32,0,1,1,95.32-95.32A95.32,95.32,0,0,1,293.23,233.07Z" transform="translate(-1.26 -6.45)"/><path class="cls-1" d="M278.84,139.55l-33-33.57-25.77,25.18,45.56,46.16a17.93,17.93,0,0,0,12.59,5.39,16.8,16.8,0,0,0,12.59-4.79l75.54-71.34L341.79,80.2Z" transform="translate(-1.26 -6.45)"/></g></svg>