<svg id="Layer_1" data-name="Layer 1" xmlns="http://www.w3.org/2000/svg" viewBox="0 0 512 512"><defs><style>.cls-1{fill:#009444;}</style></defs><title>Monthly sales</title><path id="Monthly_Sales" data-name="Monthly Sales" class="cls-1" d="M512,120V250a20,20,0,0,1-40,0V120a40.05,40.05,0,0,0-40-40H406v20a20,20,0,0,1-40,0V80H275v20a20,20,0,0,1-40,0V80H145v20a20,20,0,0,1-40,0V80H80a40.05,40.05,0,0,0-40,40V432a40.05,40.05,0,0,0,40,40h86a20,20,0,0,1,0,40H80A80.09,80.09,0,0,1,0,432V120A80.09,80.09,0,0,1,80,40h25V20a20,20,0,0,1,40,0V40h90V20a20,20,0,0,1,40,0V40h91V20a20,20,0,0,1,40,0V40h26A80.09,80.09,0,0,1,512,120ZM145,210a20,20,0,1,0-20,20A20,20,0,0,0,145,210Zm154,20a20,20,0,1,0-20-20A20,20,0,0,0,299,230Zm87,0a20,20,0,1,0-20-20A20,20,0,0,0,386,230ZM145,297a20,20,0,1,0-20,20A20,20,0,0,0,145,297Zm-20,67a20,20,0,1,0,20,20A20,20,0,0,0,125,364Zm87-134a20,20,0,1,0-20-20A20,20,0,0,0,212,230Zm-20,67a20,20,0,1,0,20-20A20,20,0,0,0,192,297Zm40,87a20,20,0,1,0-20,20A20,20,0,0,0,232,384Zm47-87a20,20,0,1,0,20-20A20,20,0,0,0,279,297Zm183,13H396a20,20,0,0,0,0,40h49.93l-70.61,70.44a5.78,5.78,0,0,1-8,.18l-10.21-9.34a45.77,45.77,0,0,0-64,2.19l-61.57,64.75a20,20,0,1,0,29,27.56L322,441.06a5.8,5.8,0,0,1,8.08-.27l10.2,9.34a45.72,45.72,0,0,0,63.25-1.37L472,380.5V429a20,20,0,0,0,40,0V360A50.06,50.06,0,0,0,462,310Z"/></svg>