<svg id="Layer_1" data-name="Layer 1" xmlns="http://www.w3.org/2000/svg" viewBox="0 0 512 512"><defs><style>.cls-1{fill:none;}.cls-2{fill:#009444;}</style></defs><title>Daily sales</title><g id="Daily_sales" data-name="Daily sales"><circle class="cls-1" cx="256" cy="256" r="246"/><circle class="cls-1" cx="256" cy="256" r="200.49"/><circle class="cls-1" cx="361.09" cy="482" r="20"/><circle class="cls-1" cx="443.81" cy="482" r="20"/><polygon class="cls-1" points="315.99 348.25 325.9 462 475.31 462 502 348.25 315.99 348.25"/><path class="cls-2" d="M419,266.19a10,10,0,0,0,0-20H404.88a10,10,0,0,0,0,20Z" transform="translate(0)"/><path class="cls-2" d="M83,255.81a10,10,0,0,0,10,10h14.12a10,10,0,0,0,0-20H93A10,10,0,0,0,83,255.81Z" transform="translate(0)"/><path class="cls-2" d="M266.19,107.12V93a10,10,0,0,0-20,0v14.12a10,10,0,0,0,20,0Z" transform="translate(0)"/><path class="cls-2" d="M245.81,404.88V419a10,10,0,0,0,20,0V404.88a10,10,0,0,0-20,0Z" transform="translate(0)"/><path class="cls-2" d="M197.57,183.43a10,10,0,0,0-14.14,14.14L223,237.16a38,38,0,1,0,66,0l79.09-79.09a10,10,0,0,0-14.14-14.14L274.84,223a37.86,37.86,0,0,0-37.68,0ZM274,256a18,18,0,1,1-18-18A18,18,0,0,1,274,256Z" transform="translate(0)"/><path class="cls-2" d="M502,338.25h-3.51A256,256,0,1,0,48.82,406.4,10,10,0,1,0,65,394.64,234.26,234.26,0,0,1,20,256C20,125.87,125.87,20,256,20S492,125.87,492,256a235.33,235.33,0,0,1-14.7,82.19s0,0,0,.06h-27.5A211.63,211.63,0,0,0,466.49,256c0-116.07-94.42-210.49-210.49-210.49A209.7,209.7,0,0,0,141,79.69,10,10,0,1,0,151.9,96.43,189.76,189.76,0,0,1,256,65.51C361,65.51,446.49,151,446.49,256a188.28,188.28,0,0,1-18.62,82.25H322.8l-2.1-19.81a10,10,0,0,0-9.95-8.94H275.8a10,10,0,1,0,0,20h26l11.5,108.23A190.33,190.33,0,0,1,256,446.49C151,446.49,65.5,361,65.5,256A189.51,189.51,0,0,1,97.8,149.85a10,10,0,0,0-16.6-11.16A209.5,209.5,0,0,0,45.51,256c0,116.07,94.42,210.49,210.49,210.49A210.23,210.23,0,0,0,315.41,458l.54,5.08A10,10,0,0,0,325.9,472h6.91a29.86,29.86,0,0,0-1.63,7.76,236.4,236.4,0,0,1-211.95-31.41,10,10,0,1,0-11.61,16.29,256.39,256.39,0,0,0,228.83,34.44A30,30,0,0,0,389.37,472h26.16a30,30,0,1,0,56.56,0h3.22a10,10,0,0,0,9.73-7.72l26.7-113.75A10,10,0,0,0,502,338.25ZM371.09,482a10,10,0,1,1-10-10A10,10,0,0,1,371.09,482Zm82.72,0a10,10,0,1,1-10-10A10,10,0,0,1,453.81,482Zm13.57-30H334.89l-10-93.75H489.38Z" transform="translate(0)"/><path class="cls-2" d="M115.17,123.37a10,10,0,1,0-7.07-2.93A10.08,10.08,0,0,0,115.17,123.37Z" transform="translate(0)"/><path class="cls-2" d="M83.05,420.94a10,10,0,1,0,7.07,2.93A10.08,10.08,0,0,0,83.05,420.94Z" transform="translate(0)"/></g></svg>