<svg id="Layer_1" data-name="Layer 1" xmlns="http://www.w3.org/2000/svg" viewBox="0 0 417.69 512"><defs><style>.cls-1{fill:#008bb9;}</style></defs><title>Transfered</title><g id="Transfered"><g id="Layer_33" data-name="Layer 33"><path class="cls-1" d="M430.2,337.49l-83.8-54.12V157h-211v77.39l-8.33-.73v7.78l-.23,44.29h-.13V311l-.64,122,9.33,1.45V512h211V467.34L454.73,484.8l10.11-126.23ZM245.58,171.67a5.1,5.1,0,1,1-5.11,5.1A5.11,5.11,0,0,1,245.58,171.67Zm-30.36,17h60.7v4.9h-60.7Zm-76.61,57.56L175,249.49l.46,17.91H138.61Zm-.38,64.85.07-13.22L175.39,300l.46,17.93-37.62,1.2Zm.39,41.57,36.44-2.34.44,17.36-36.87,3.77V352.69Zm19.92,73.6h0l4.5-.85Zm-20.1-8V401.74l29.19-2.69.32,13.69Zm105.14,78.33a12.16,12.16,0,1,1,12.16-12.17A12.18,12.18,0,0,1,243.58,496.66Zm69-41.81c-54.82.29-116.13.51-143.33.26V424.26l10.53-2-.86-35.9-41.07,3.79,31.39-2.9v-7.32l18.11-1.83-1-40.1-17.09,1.1v-9.47l18.48-.59-1-40.1L169.19,288v-9L146,279l41.33,0-1-40.09-17.1-1.52V211L312.52,211V285.5l-79.26,20.58a5.77,5.77,0,0,0-4.33,5.7l.61,28.15a5.74,5.74,0,0,0,5.09,5.6l77.89,9.3v100h0Zm131.68,16.52L346.4,455.6V382.2l13.35,18.37,9.34-6.82-33.37-45.89a5.74,5.74,0,0,0-4-2.35L241,334.69l-.4-18.56,96.49-25,91.82,59.32.09-.14,23.74,14.45Z" transform="translate(-47.16)"/></g><rect class="cls-1" x="46.31" y="72.77" width="81.2" height="34.98" rx="3.18" transform="translate(42.13 -35.02) rotate(45)"/><rect class="cls-1" x="338.93" y="72.77" width="81.2" height="34.98" rx="3.18" transform="translate(664.58 -114.29) rotate(135)"/><rect class="cls-1" x="199.87" y="23.11" width="81.2" height="34.98" rx="3.18" transform="translate(233.92 -199.87) rotate(90)"/></g></svg>